<svg width="20" height="20" viewBox="0 0 20 20" fill="none" xmlns="http://www.w3.org/2000/svg">
<path d="M8.60851 13.8276H3.35791" stroke="#7C47EF" stroke-width="1.25" stroke-linecap="round" stroke-linejoin="round"/>
<path d="M10.9512 5.75034H16.2018" stroke="#7C47EF" stroke-width="1.25" stroke-linecap="round" stroke-linejoin="round"/>
<path fill-rule="evenodd" clip-rule="evenodd" d="M7.27256 5.70521C7.27256 4.6255 6.39076 3.75 5.30327 3.75C4.21578 3.75 3.33398 4.6255 3.33398 5.70521C3.33398 6.78492 4.21578 7.66042 5.30327 7.66042C6.39076 7.66042 7.27256 6.78492 7.27256 5.70521Z" stroke="#7C47EF" stroke-width="1.25" stroke-linecap="round" stroke-linejoin="round"/>
<path fill-rule="evenodd" clip-rule="evenodd" d="M16.6671 13.7949C16.6671 12.7152 15.786 11.8397 14.6985 11.8397C13.6103 11.8397 12.7285 12.7152 12.7285 13.7949C12.7285 14.8746 13.6103 15.7501 14.6985 15.7501C15.786 15.7501 16.6671 14.8746 16.6671 13.7949Z" stroke="#7C47EF" stroke-width="1.25" stroke-linecap="round" stroke-linejoin="round"/>
</svg>
