<svg width="18" height="18" viewBox="0 0 18 18" fill="none" xmlns="http://www.w3.org/2000/svg">
<path d="M6.63105 16.3095V13.7539C6.63104 13.1039 7.16097 12.5757 7.81755 12.5713H10.2226C10.8823 12.5713 11.4171 13.1008 11.4171 13.7539V16.3174C11.417 16.8693 11.8619 17.3204 12.4192 17.3333H14.0226C15.621 17.3333 16.9167 16.0506 16.9167 14.4682V7.1982C16.9082 6.57569 16.6129 5.99113 16.115 5.61087L10.6315 1.23776C9.67082 0.47631 8.30521 0.47631 7.34456 1.23776L1.88506 5.6188C1.38526 5.99752 1.08953 6.58306 1.08337 7.20614V14.4682C1.08337 16.0506 2.3791 17.3333 3.97747 17.3333H5.58084C6.152 17.3333 6.61502 16.875 6.61502 16.3095" stroke="#8F8F91" stroke-opacity="0.5" stroke-width="1.25" stroke-linecap="round" stroke-linejoin="round"/>
</svg>
