<svg width="16" height="18" viewBox="0 0 16 18" fill="none" xmlns="http://www.w3.org/2000/svg">
<path fill-rule="evenodd" clip-rule="evenodd" d="M5.63093 16.3095V13.7539C5.63092 13.1039 6.16085 12.5757 6.81743 12.5713H9.22249C9.88221 12.5713 10.417 13.1008 10.417 13.7539V16.3174C10.4169 16.8693 10.8618 17.3204 11.4191 17.3333H13.0225C14.6209 17.3333 15.9166 16.0506 15.9166 14.4682V7.1982C15.908 6.57569 15.6128 5.99113 15.1149 5.61087L9.63135 1.23776C8.6707 0.47631 7.30509 0.47631 6.34443 1.23776L0.88494 5.6188C0.385134 5.99752 0.0894075 6.58306 0.083252 7.20614V14.4682C0.083252 16.0506 1.37898 17.3333 2.97734 17.3333H4.58072C5.15188 17.3333 5.6149 16.875 5.6149 16.3095" fill="#7C47EF"/>
</svg>
